<svg width="20" height="22" viewBox="0 0 20 22" fill="none" xmlns="http://www.w3.org/2000/svg">
<g clip-path="url(#clip0)">
<path d="M9.6243 22C11.142 22 12.373 20.7689 12.373 19.25H6.87559C6.87559 20.7689 8.10664 22 9.6243 22ZM18.8793 15.5671C18.0492 14.6751 16.4959 13.3332 16.4959 8.9375C16.4959 5.59883 14.1549 2.92617 10.9984 2.27047V1.375C10.9984 0.615742 10.3831 0 9.6243 0C8.86547 0 8.25016 0.615742 8.25016 1.375V2.27047C5.09367 2.92617 2.75273 5.59883 2.75273 8.9375C2.75273 13.3332 1.19941 14.6751 0.369258 15.5671C0.111446 15.8443 -0.00285115 16.1756 -0.000702714 16.5C0.00402385 17.2047 0.557032 17.875 1.37859 17.875H17.87C18.6916 17.875 19.245 17.2047 19.2493 16.5C19.2514 16.1756 19.1371 15.8439 18.8793 15.5671Z" fill="#55576A"/>
</g>
<defs>
<clipPath id="clip0">
<rect width="19.25" height="22" fill="white"/>
</clipPath>
</defs>
</svg>
