<svg width="22" height="22" viewBox="0 0 22 22" fill="none" xmlns="http://www.w3.org/2000/svg">
<path d="M21.3813 0L14.3687 0.00730469C14.2046 0.00730469 14.0473 0.0724942 13.9312 0.188532C13.8152 0.30457 13.75 0.461952 13.75 0.626055V2.05734C13.75 2.13966 13.7664 2.22115 13.7983 2.29704C13.8301 2.37294 13.8768 2.44171 13.9356 2.49933C13.9944 2.55695 14.0641 2.60227 14.1406 2.63262C14.2171 2.66297 14.2989 2.67775 14.3812 2.67609L17.545 2.55922L17.6335 2.64773L5.65125 14.6304C5.60318 14.6783 5.56504 14.7353 5.53901 14.7979C5.51299 14.8606 5.49959 14.9278 5.49959 14.9957C5.49959 15.0635 5.51299 15.1307 5.53901 15.1934C5.56504 15.2561 5.60318 15.313 5.65125 15.3609L6.63953 16.3492C6.68743 16.3972 6.74436 16.4354 6.80703 16.4614C6.86971 16.4874 6.9369 16.5008 7.00477 16.5008C7.07263 16.5008 7.13983 16.4874 7.2025 16.4614C7.26518 16.4354 7.3221 16.3972 7.37 16.3492L19.3523 4.36648L19.4408 4.455L19.3239 7.61879C19.3222 7.70109 19.337 7.78289 19.3674 7.8594C19.3977 7.93592 19.443 8.00561 19.5007 8.06439C19.5583 8.12317 19.6271 8.16987 19.703 8.20174C19.7789 8.23361 19.8603 8.25002 19.9427 8.25H21.3739C21.538 8.25 21.6954 8.18481 21.8115 8.06877C21.9275 7.95273 21.9927 7.79535 21.9927 7.63125L22 0.61875C22 0.454647 21.9348 0.297266 21.8188 0.181228C21.7027 0.0651895 21.5454 0 21.3813 0V0ZM18.5625 12.375H17.875C17.6927 12.375 17.5178 12.4474 17.3889 12.5764C17.2599 12.7053 17.1875 12.8802 17.1875 13.0625V19.6797C17.1875 19.7481 17.1603 19.8136 17.112 19.862C17.0636 19.9103 16.9981 19.9375 16.9297 19.9375H2.32031C2.25194 19.9375 2.18636 19.9103 2.13801 19.862C2.08966 19.8136 2.0625 19.7481 2.0625 19.6797V5.07031C2.0625 5.00194 2.08966 4.93636 2.13801 4.88801C2.18636 4.83966 2.25194 4.8125 2.32031 4.8125H8.9375C9.11984 4.8125 9.2947 4.74007 9.42364 4.61114C9.55257 4.4822 9.625 4.30734 9.625 4.125V3.4375C9.625 3.25516 9.55257 3.0803 9.42364 2.95136C9.2947 2.82243 9.11984 2.75 8.9375 2.75H2.0625C1.51549 2.75 0.990886 2.9673 0.604092 3.35409C0.217298 3.74089 0 4.26549 0 4.8125L0 19.9375C0 20.4845 0.217298 21.0091 0.604092 21.3959C0.990886 21.7827 1.51549 22 2.0625 22H17.1875C17.7345 22 18.2591 21.7827 18.6459 21.3959C19.0327 21.0091 19.25 20.4845 19.25 19.9375V13.0625C19.25 12.8802 19.1776 12.7053 19.0486 12.5764C18.9197 12.4474 18.7448 12.375 18.5625 12.375Z" fill="#2E14CC"/>
</svg>
