<svg width="26" height="20" viewBox="0 0 26 20" fill="none" xmlns="http://www.w3.org/2000/svg">
<path d="M5.65699 7.23503H6.52702V8.10507C6.52702 8.52574 6.86807 8.86679 7.28875 8.86679C7.70942 8.86679 8.05047 8.52574 8.05047 8.10507V7.23503H8.9205C9.34118 7.23503 9.68223 6.89398 9.68223 6.47331C9.68223 6.05264 9.34118 5.71159 8.9205 5.71159H8.05047V4.84155C8.05047 4.42088 7.70942 4.07983 7.28875 4.07983C6.86807 4.07983 6.52702 4.42088 6.52702 4.84155V5.71159H5.65699C5.23631 5.71159 4.89526 6.05264 4.89526 6.47331C4.89526 6.89398 5.23631 7.23503 5.65699 7.23503Z" fill="#55576A"/>
<path d="M19.1191 5.19495C19.5398 5.19495 19.8809 4.85392 19.8809 4.43323C19.8809 4.01254 19.5398 3.67151 19.1191 3.67151C18.6985 3.67151 18.3574 4.01254 18.3574 4.43323C18.3574 4.85392 18.6985 5.19495 19.1191 5.19495Z" fill="#55576A"/>
<path d="M21.1589 7.23426C21.5796 7.23426 21.9207 6.89322 21.9207 6.47254C21.9207 6.05185 21.5796 5.71082 21.1589 5.71082C20.7383 5.71082 20.3972 6.05185 20.3972 6.47254C20.3972 6.89322 20.7383 7.23426 21.1589 7.23426Z" fill="#55576A"/>
<path d="M17.0795 7.23426C17.5002 7.23426 17.8412 6.89322 17.8412 6.47254C17.8412 6.05185 17.5002 5.71082 17.0795 5.71082C16.6588 5.71082 16.3177 6.05185 16.3177 6.47254C16.3177 6.89322 16.6588 7.23426 17.0795 7.23426Z" fill="#55576A"/>
<path d="M19.1191 9.27466C19.5398 9.27466 19.8809 8.93363 19.8809 8.51294C19.8809 8.09225 19.5398 7.75122 19.1191 7.75122C18.6985 7.75122 18.3574 8.09225 18.3574 8.51294C18.3574 8.93363 18.6985 9.27466 19.1191 9.27466Z" fill="#55576A"/>
<path d="M19.5279 0H6.47213C2.90337 0 0 2.90337 0 6.47376V16.4969C0 18.1379 1.33504 19.473 2.9768 19.473C3.86273 19.473 4.7055 19.0906 5.28898 18.4239L10.0821 12.9458H15.9179L20.7111 18.4239C21.2945 19.0906 22.1373 19.473 23.024 19.473C24.665 19.473 26 18.1379 26 16.4969V6.47376C26.0001 2.90337 23.0967 0 19.5279 0ZM6.47213 1.52344H19.528C22.2567 1.52344 24.4767 3.74411 24.4767 6.47376C24.4767 9.20244 22.2567 11.4225 19.528 11.4225H6.47213C3.7434 11.4224 1.52344 9.20244 1.52344 6.47376C1.52344 3.74411 3.7434 1.52344 6.47213 1.52344ZM4.14249 17.4206C3.84836 17.7567 3.42348 17.9495 2.97604 17.9495C2.17507 17.9495 1.52344 17.2979 1.52344 16.4969V10.6399C2.71162 12.049 4.48897 12.9458 6.47213 12.9458H8.05788L4.14249 17.4206ZM24.4766 16.4969C24.4766 17.2979 23.825 17.9495 23.0233 17.9495C22.5766 17.9495 22.1517 17.7567 21.8576 17.4206L17.9422 12.9458H19.528C21.5111 12.9458 23.2885 12.0489 24.4767 10.6399V16.4969H24.4766Z" fill="#55576A"/>
</svg>
