<svg width="30" height="30" viewBox="0 0 30 30" fill="none" xmlns="http://www.w3.org/2000/svg">
<rect width="30" height="30" rx="6" fill="#2E14CC"/>
<path d="M12.4483 25.508C11.9057 25.508 11.429 25.464 11.0183 25.376C10.6077 25.288 10.2483 25.0753 9.94034 24.738C9.64701 24.4007 9.50034 23.88 9.50034 23.176C9.50034 22.1933 9.79368 20.8733 10.3803 19.216C10.9817 17.5587 11.7663 15.894 12.7343 14.222C12.001 14.266 11.4217 14.376 10.9963 14.552C10.571 14.728 10.2923 14.9993 10.1603 15.366C10.219 15.366 10.2777 15.4393 10.3363 15.586C10.4097 15.7327 10.4463 15.8867 10.4463 16.048C10.4463 16.312 10.329 16.5247 10.0943 16.686C9.85968 16.8327 9.56634 16.906 9.21434 16.906C8.80368 16.906 8.47368 16.796 8.22434 16.576C7.97501 16.356 7.85034 16.0407 7.85034 15.63C7.85034 15.1313 8.04101 14.6767 8.42234 14.266C8.81834 13.8553 9.36101 13.5327 10.0503 13.298C10.7397 13.0487 11.5023 12.924 12.3383 12.924C12.6463 12.924 13.0277 12.946 13.4823 12.99C14.685 11.0833 15.9537 9.52867 17.2883 8.326C18.6377 7.10867 19.921 6.5 21.1383 6.5C21.8423 6.5 22.4217 6.60267 22.8763 6.808L19.4223 23H16.2543L17.9483 15.014C17.4057 14.7647 16.907 14.5813 16.4523 14.464C15.9977 14.3467 15.5137 14.266 15.0003 14.222C14.1643 16.026 13.475 17.874 12.9323 19.766C12.4043 21.6433 12.1403 23.1467 12.1403 24.276C12.1403 24.8333 12.243 25.244 12.4483 25.508ZM19.4223 8.062C18.7917 8.39933 18.1317 9.03 17.4423 9.954C16.7677 10.8633 16.1077 11.9707 15.4623 13.276C16.5183 13.4813 17.413 13.738 18.1463 14.046L19.4223 8.062Z" fill="white"/>
</svg>
