<svg width="77" height="90" viewBox="0 0 77 90" fill="none" xmlns="http://www.w3.org/2000/svg">
<g opacity="0.5">
<path opacity="0.5" d="M5.95079 15.0635H5.5332V17.4298H5.95079V15.0635Z" fill="#03C3E1"/>
<path opacity="0.5" d="M6.92529 16.4552V16.0376H4.55894V16.4552H6.92529Z" fill="#03C3E1"/>
</g>
<g opacity="0.5">
<path opacity="0.5" d="M5.9508 39.0767H5.5332V41.443H5.9508V39.0767Z" fill="#03C3E1"/>
<path opacity="0.5" d="M6.92529 40.4684V40.0508H4.55894V40.4684H6.92529Z" fill="#03C3E1"/>
</g>
<g opacity="0.5">
<path opacity="0.5" d="M55.1869 1.55811H54.7693V3.92446H55.1869V1.55811Z" fill="#03C3E1"/>
<path opacity="0.5" d="M56.1614 2.94982V2.53223H53.795V2.94982H56.1614Z" fill="#03C3E1"/>
</g>
<g opacity="0.5">
<path opacity="0.5" d="M1.39318 4.70801H0.975586V7.07436H1.39318V4.70801Z" fill="#03C3E1"/>
<path opacity="0.5" d="M2.36646 6.09972V5.68213H0.000103474V6.09972H2.36646Z" fill="#03C3E1"/>
</g>
<path opacity="0.5" d="M76.4965 30.6228C76.3724 30.604 76.2595 30.5404 76.1793 30.4438C76.0991 30.3473 76.0572 30.2247 76.0615 30.0993C76.0625 30.0801 76.0612 30.0608 76.0578 30.0419C76.0512 29.9847 76.0252 29.9316 75.9841 29.8913C75.9429 29.8511 75.8892 29.8262 75.832 29.8209C75.7747 29.8155 75.7173 29.83 75.6695 29.862C75.6216 29.8939 75.5862 29.9413 75.5691 29.9962C75.562 30.0142 75.557 30.033 75.5542 30.0522C75.5357 30.1761 75.4724 30.289 75.3761 30.3693C75.2799 30.4497 75.1576 30.4919 75.0323 30.488C75.0131 30.487 74.9938 30.4883 74.9749 30.4917C74.9177 30.4983 74.8646 30.5243 74.8243 30.5655C74.7841 30.6066 74.7592 30.6603 74.7539 30.7176C74.7485 30.7748 74.763 30.8322 74.7949 30.8801C74.8269 30.9279 74.8743 30.9634 74.9292 30.9804C74.9472 30.9875 74.966 30.9925 74.9852 30.9953C75.1092 31.014 75.2221 31.0777 75.3023 31.1742C75.3825 31.2707 75.4244 31.3934 75.4201 31.5188C75.4192 31.538 75.4204 31.5573 75.4238 31.5762C75.4304 31.6334 75.4565 31.6865 75.4976 31.7267C75.5387 31.767 75.5924 31.7919 75.6497 31.7972C75.707 31.8025 75.7643 31.788 75.8122 31.7561C75.86 31.7242 75.8955 31.6768 75.9125 31.6218C75.9196 31.6038 75.9246 31.5851 75.9274 31.5659C75.9461 31.4418 76.0098 31.329 76.1063 31.2488C76.2028 31.1686 76.3255 31.1266 76.4509 31.1309C76.4701 31.1319 76.4894 31.1307 76.5083 31.1272C76.5655 31.1206 76.6186 31.0946 76.6589 31.0535C76.6991 31.0124 76.724 30.9587 76.7293 30.9014C76.7347 30.8441 76.7202 30.7867 76.6882 30.7389C76.6563 30.691 76.6089 30.6556 76.5539 30.6385C76.5355 30.631 76.5162 30.6257 76.4965 30.6228Z" fill="#005CA0"/>
<path opacity="0.5" d="M75.5787 10.7254C75.4637 10.6752 75.3711 10.5845 75.3186 10.4705C75.2661 10.3565 75.2574 10.2272 75.294 10.1072C75.2999 10.0888 75.3037 10.0699 75.3053 10.0507C75.3137 9.99382 75.3023 9.93574 75.273 9.88624C75.2437 9.83673 75.1983 9.7988 75.1443 9.77881C75.0904 9.75882 75.0312 9.75798 74.9767 9.77644C74.9222 9.79489 74.8758 9.83152 74.8451 9.88018C74.8336 9.89573 74.8239 9.91256 74.8162 9.93034C74.766 10.0453 74.6753 10.1379 74.5613 10.1904C74.4473 10.2429 74.318 10.2516 74.198 10.215C74.1797 10.2091 74.1607 10.2053 74.1415 10.2037C74.0846 10.1953 74.0266 10.2067 73.9771 10.236C73.9276 10.2653 73.8896 10.3107 73.8696 10.3647C73.8496 10.4186 73.8488 10.4778 73.8673 10.5323C73.8857 10.5868 73.9223 10.6333 73.971 10.6639C73.9866 10.6755 74.0034 10.6851 74.0212 10.6928C74.1362 10.743 74.2287 10.8337 74.2812 10.9477C74.3337 11.0617 74.3425 11.191 74.3058 11.311C74.2999 11.3293 74.2961 11.3483 74.2945 11.3675C74.2861 11.4244 74.2975 11.4824 74.3268 11.5319C74.3561 11.5815 74.4015 11.6194 74.4555 11.6394C74.5094 11.6594 74.5686 11.6602 74.6231 11.6417C74.6776 11.6233 74.7241 11.5867 74.7548 11.538C74.7663 11.5225 74.776 11.5056 74.7836 11.4878C74.8338 11.3728 74.9246 11.2803 75.0385 11.2278C75.1525 11.1753 75.2818 11.1666 75.4019 11.2032C75.4202 11.2091 75.4391 11.2129 75.4583 11.2145C75.5152 11.2229 75.5733 11.2115 75.6228 11.1822C75.6723 11.1529 75.7102 11.1075 75.7302 11.0535C75.7502 10.9996 75.751 10.9404 75.7326 10.8859C75.7141 10.8314 75.6775 10.7849 75.6288 10.7542C75.6133 10.7427 75.5965 10.733 75.5787 10.7254Z" fill="#005CA0"/>
<path opacity="0.5" d="M0.835183 31.9831C1.29644 31.9831 1.67037 31.6092 1.67037 31.1479C1.67037 30.6867 1.29644 30.3127 0.835183 30.3127C0.373924 30.3127 0 30.6867 0 31.1479C0 31.6092 0.373924 31.9831 0.835183 31.9831Z" fill="#2C2D44"/>
<path opacity="0.5" d="M64.6596 16.9047C65.1209 16.9047 65.4948 16.5308 65.4948 16.0696C65.4948 15.6083 65.1209 15.2344 64.6596 15.2344C64.1984 15.2344 63.8245 15.6083 63.8245 16.0696C63.8245 16.5308 64.1984 16.9047 64.6596 16.9047Z" fill="#2C2D44"/>
<path opacity="0.5" d="M71.8352 43.6704C72.2964 43.6704 72.6704 43.2964 72.6704 42.8352C72.6704 42.3739 72.2964 42 71.8352 42C71.3739 42 71 42.3739 71 42.8352C71 43.2964 71.3739 43.6704 71.8352 43.6704Z" fill="#005CA0"/>
<path opacity="0.5" d="M18.6541 5.69037C19.1736 5.69037 19.5947 5.26928 19.5947 4.74985C19.5947 4.23041 19.1736 3.80933 18.6541 3.80933C18.1347 3.80933 17.7136 4.23041 17.7136 4.74985C17.7136 5.26928 18.1347 5.69037 18.6541 5.69037Z" fill="#03C3E1"/>
<path d="M20.2256 46.6685C19.7315 48.2724 20.4764 50.1685 21.9223 51.0124C22.5292 51.366 23.2277 51.5441 23.8159 51.9279C25.0937 52.7605 25.5978 54.3544 26.0129 55.8216C26.4895 57.5083 26.9672 59.2915 26.5308 60.9882C26.2524 62.0704 25.6192 63.0273 25.2593 64.0857C24.9582 64.9722 24.8534 65.9135 24.952 66.8445C25.0047 67.3386 25.1276 67.8477 25.4662 68.2164C25.9552 68.7431 26.7428 68.8221 27.45 68.9488C28.9453 69.2316 30.3523 69.8647 31.5556 70.7964C32.7588 71.728 33.7241 72.9316 34.3723 74.3085" stroke="url(#paint0_linear)" stroke-width="2" stroke-miterlimit="10"/>
<path d="M20.3772 46.6685C19.8831 48.2724 20.628 50.1685 22.0739 51.0124C22.6808 51.366 23.3793 51.5441 23.9675 51.9279C25.2453 52.7605 25.7495 54.3544 26.1645 55.8216C26.6411 57.5083 27.1189 59.2915 26.6825 60.9882C26.4041 62.0704 25.7708 63.0273 25.4109 64.0857C25.1099 64.9722 25.005 65.9135 25.1036 66.8445C25.1563 67.3386 25.2792 67.8477 25.6178 68.2164C26.1069 68.7431 26.8944 68.8221 27.6017 68.9488C29.0969 69.2316 30.5039 69.8647 31.7072 70.7964C32.9104 71.728 33.8757 72.9316 34.5239 74.3085" stroke="#767789" stroke-width="2" stroke-miterlimit="10"/>
<path d="M39.0798 34.6794C37.8609 36.3787 36.5955 38.2058 36.4915 40.295C36.3322 43.504 38.8992 46.1287 40.0454 49.1309C40.5421 50.4533 40.767 51.8624 40.7064 53.2737C40.6459 54.6851 40.3012 56.0697 39.693 57.3448C39.1337 58.501 38.3361 59.6497 38.439 60.93C38.4979 61.7113 38.8892 62.4223 39.2039 63.1409C39.9765 64.9417 40.3135 66.8993 40.1878 68.8548C40.0621 70.8104 39.4771 72.7087 38.4803 74.3958" stroke="url(#paint1_linear)" stroke-width="2" stroke-miterlimit="10"/>
<path d="M39.2302 34.6794C38.0125 36.3849 36.7472 38.207 36.6406 40.295C36.4814 43.504 39.0484 46.1287 40.1946 49.1309C40.6913 50.4533 40.9161 51.8624 40.8556 53.2737C40.795 54.6851 40.4504 56.0697 39.8422 57.3448C39.2829 58.501 38.4853 59.6497 38.5881 60.93C38.6471 61.7113 39.0383 62.4223 39.3531 63.1409C40.1256 64.9417 40.4627 66.8993 40.337 68.8548C40.2113 70.8104 39.6263 72.7087 38.6295 74.3958" stroke="#767789" stroke-width="2" stroke-miterlimit="10"/>
<path d="M56.1823 49.9636L56.7717 54.7678C56.8494 55.4061 56.9159 56.1021 56.5736 56.6489C56.2488 57.1643 55.6393 57.41 55.1653 57.7913C53.609 59.0453 53.7507 61.4418 54.2875 63.3654C54.8242 65.2891 55.5967 67.3557 54.8505 69.2067C54.542 69.9704 53.9978 70.6137 53.5965 71.331C52.908 72.5568 52.6352 73.9727 52.819 75.3665" stroke="url(#paint2_linear)" stroke-width="2" stroke-miterlimit="10"/>
<path d="M56.329 49.9636L56.9184 54.7678C56.9962 55.4061 57.0626 56.1021 56.7203 56.6489C56.3955 57.1643 55.786 57.41 55.312 57.7913C53.7558 59.0453 53.8975 61.4418 54.4342 63.3654C54.9709 65.2891 55.7434 67.3557 54.9972 69.2067C54.6888 69.9704 54.1445 70.6137 53.7432 71.331C53.0548 72.5568 52.782 73.9727 52.9657 75.3665" stroke="#767789" stroke-width="2" stroke-miterlimit="10"/>
<g opacity="0.7">
<path opacity="0.7" d="M71.4651 30.2175C71.4641 27.97 70.9313 25.7546 69.9103 23.7523C68.8893 21.7501 67.409 20.0178 65.5904 18.6972C63.7719 17.3765 61.6666 16.5048 59.4467 16.1534C57.2268 15.802 54.9553 15.9808 52.8177 16.6752C52.9354 15.875 52.9961 15.0675 52.9995 14.2587C53.0052 10.5675 51.577 7.0184 49.0162 4.35995C46.4553 1.70151 42.9621 0.141578 39.2733 0.00917153C35.5844 -0.123235 31.9883 1.18224 29.2435 3.65024C26.4987 6.11824 24.8197 9.55583 24.5607 13.2379C22.4226 12.542 20.1501 12.3621 17.9291 12.7129C15.7081 13.0636 13.6017 13.9352 11.7822 15.2562C9.9626 16.5772 8.48158 18.3101 7.46022 20.3133C6.43887 22.3165 5.9062 24.5329 5.90576 26.7815C5.90576 33.9294 11.1727 44.087 18.0259 45.8866L19.0931 46.496L18.5138 48.4812H21.9448L21.1999 46.4935L22.2621 45.8866C27.5616 44.4959 31.9068 38.1116 33.6085 31.9882C34.5402 32.6083 35.5658 33.0741 36.6458 33.3676L37.7129 33.9771L37.1424 35.9572H40.5734L39.8285 33.9695L40.8907 33.3626C41.6778 33.1508 42.436 32.8429 43.1479 32.4459C44.0646 39.3155 48.9415 47.7024 55.1126 49.3214L56.1798 49.9308L55.6004 51.916H59.0314L58.284 49.9283L59.3462 49.3214C66.2045 47.5218 71.4651 37.3604 71.4651 30.2175Z" fill="url(#paint3_linear)"/>
</g>
<path d="M22.4904 47.7465H19.1697L19.7515 45.7551H21.7429L22.4904 47.7465Z" fill="#2C2D44"/>
<path d="M34.524 26.7486C34.524 34.358 28.3554 45.5051 20.7472 45.5051C13.139 45.5051 6.97046 34.3568 6.97046 26.7486C6.97046 23.0946 8.422 19.5903 11.0058 17.0065C13.5895 14.4227 17.0939 12.9712 20.7479 12.9712C24.4018 12.9712 27.9062 14.4227 30.4899 17.0065C33.0737 19.5903 34.5252 23.0946 34.5252 26.7486H34.524Z" fill="#2C2D44"/>
<path d="M21.7427 45.8384H19.7514L18.5889 45.175H22.9052L21.7427 45.8384Z" fill="#535461"/>
<path opacity="0.1" d="M15.7673 16.0422C15.7673 16.0422 9.95736 19.1961 9.1272 25.5039L15.7673 16.0422Z" fill="white"/>
<path d="M40.5067 35.6352H37.186L37.7679 33.6438H39.7593L40.5067 35.6352Z" fill="#03C3E1"/>
<path d="M52.5406 14.6372C52.5406 22.2467 46.372 33.3938 38.7638 33.3938C31.1556 33.3938 24.9871 22.2454 24.9871 14.6372C24.9871 10.9833 26.4386 7.47893 29.0224 4.89517C31.6061 2.3114 35.1105 0.859863 38.7644 0.859863C42.4184 0.859863 45.9228 2.3114 48.5065 4.89517C51.0903 7.47893 52.5418 10.9833 52.5418 14.6372H52.5406Z" fill="#03C3E1"/>
<path d="M39.7594 33.7262H37.768L36.6055 33.0615H40.9218L39.7594 33.7262Z" fill="#535461"/>
<path opacity="0.1" d="M33.7841 3.93091C33.7841 3.93091 27.9742 7.08479 27.144 13.3926L33.7841 3.93091Z" fill="white"/>
<path d="M58.3717 51.0781H55.051L55.6329 49.0854H57.6243L58.3717 51.0781Z" fill="#2C2D44"/>
<path d="M70.4054 30.0796C70.4054 37.6891 64.2368 48.8361 56.6286 48.8361C49.0204 48.8361 42.8506 37.6891 42.8506 30.0796C42.8506 26.4256 44.3021 22.9213 46.8859 20.3376C49.4696 17.7538 52.974 16.3022 56.628 16.3022C60.282 16.3022 63.7863 17.7538 66.3701 20.3376C68.9538 22.9213 70.4054 26.4256 70.4054 30.0796Z" fill="#2C2D44"/>
<path d="M57.6243 49.1687H55.6329L54.4705 48.5054H58.7868L57.6243 49.1687Z" fill="#535461"/>
<path opacity="0.1" d="M51.6489 19.3726C51.6489 19.3726 45.839 22.5264 45.0088 28.8342L51.6489 19.3726Z" fill="white"/>
<g opacity="0.5">
<path opacity="0.5" d="M46.5237 53.4258C45.7249 52.6245 44.5599 52.3059 43.2432 52.5279C42.0117 52.7361 40.779 53.4057 39.7733 54.409C39.482 54.7019 39.2371 55.0377 39.0472 55.4047C38.8623 55.0253 38.6195 54.6772 38.3274 54.3726C37.3392 53.3506 36.1178 52.6621 34.8851 52.4364C33.5734 52.1856 32.4034 52.4903 31.5895 53.2778C30.7756 54.0654 30.4421 55.2253 30.6452 56.5446C30.8358 57.7785 31.4854 59.0213 32.4748 60.0408C34.554 62.1864 38.7036 61.3488 38.8792 61.3111L38.9306 61.2998L39.0899 61.3362C39.2654 61.3763 43.3999 62.2855 45.5155 60.1762C46.5187 59.173 47.1921 57.9428 47.4053 56.7114C47.6373 55.3934 47.3225 54.2284 46.5237 53.4258ZM38.1819 60.0722C37.1787 60.2076 34.6794 60.3907 33.4392 59.1103C32.6416 58.2864 32.12 57.3033 31.9707 56.3389C31.8353 55.4611 32.0309 54.7087 32.525 54.2346C32.7178 54.0496 32.9484 53.9084 33.2009 53.8208C33.6677 53.6699 34.166 53.6449 34.6456 53.7481C35.6037 53.9274 36.5718 54.4792 37.3693 55.3031C38.6096 56.5747 38.3487 59.0727 38.1819 60.0709V60.0722ZM46.0961 56.4844C45.9306 57.445 45.3926 58.4206 44.58 59.2294C43.3172 60.4835 40.8179 60.2615 39.8209 60.1073C39.6717 59.104 39.4535 56.6098 40.7163 55.3507C41.5289 54.5419 42.5058 54.0064 43.4664 53.8459C43.9478 53.751 44.4456 53.7847 44.9098 53.9437C45.1612 54.0358 45.3896 54.1813 45.5794 54.3701C46.0635 54.8554 46.2466 55.6053 46.0961 56.4831V56.4844Z" fill="url(#paint4_linear)"/>
</g>
<path d="M39.2867 61.0382L38.8917 61.121C38.7237 61.1561 34.7534 61.9574 32.7633 59.9046C31.8177 58.929 31.1957 57.7401 31.0076 56.5588C30.812 55.296 31.133 54.1862 31.9105 53.4326C32.688 52.6789 33.8079 52.393 35.0632 52.6275C36.2382 52.8469 37.4069 53.5053 38.3525 54.4822C40.3414 56.535 39.4159 60.4789 39.3758 60.6457L39.2867 61.0382ZM33.4517 53.9542C33.21 54.0381 32.9892 54.1733 32.8046 54.3505C32.3331 54.8082 32.145 55.523 32.2742 56.3645C32.4172 57.2862 32.9163 58.228 33.68 59.0167C34.8675 60.2419 37.259 60.0664 38.2183 59.9372C38.3776 58.9829 38.6284 56.5977 37.4408 55.3725C36.6771 54.585 35.7516 54.0558 34.8337 53.8853C34.375 53.7863 33.8983 53.8101 33.4517 53.9542Z" fill="#03C3E1"/>
<path d="M38.7 61.0556L38.6122 60.6619C38.5746 60.4938 37.7168 56.5349 39.7408 54.5171C40.7039 53.5578 41.8827 52.9195 43.0615 52.7201C44.3155 52.5069 45.4354 52.8117 46.1966 53.5791C46.9578 54.3466 47.2625 55.4602 47.0455 56.7142C46.8424 57.8917 46.2003 59.0693 45.2372 60.0286C43.2132 62.0463 39.2568 61.176 39.0925 61.1384L38.7 61.0556ZM44.6566 54.0669C44.213 53.9149 43.7373 53.8825 43.2772 53.9729C42.3567 54.1284 41.4225 54.6413 40.6437 55.415C39.4348 56.6201 39.6405 59.0078 39.7872 59.9659C40.744 60.1114 43.133 60.3283 44.3406 59.1244C45.1181 58.3495 45.6322 57.4165 45.7915 56.491C45.9357 55.652 45.7602 54.9335 45.2962 54.4682C45.1143 54.2901 44.8961 54.1532 44.6566 54.0669Z" fill="#03C3E1"/>
<g opacity="0.5">
<path opacity="0.5" d="M58.0634 60.0015H19.5635V67.705H21.5636V90.0003H56.0632V67.705H58.0634V60.0015Z" fill="url(#paint5_linear)"/>
</g>
<path d="M55.6268 62.3298H22V89.6213H55.6268V62.3298Z" fill="#005CA0"/>
<path d="M41.9804 67.2026H35.645V89.6197H41.9804V67.2026Z" fill="#03C3E1"/>
<path opacity="0.1" d="M55.6268 60.8672H22V67.6904H55.6268V60.8672Z" fill="black"/>
<path d="M57.5768 60.3794H20.0513V67.2026H57.5768V60.3794Z" fill="#005CA0"/>
<path d="M41.9804 60.3794H35.645V67.2026H41.9804V60.3794Z" fill="#03C3E1"/>
<defs>
<linearGradient id="paint0_linear" x1="19.9472" y1="60.4916" x2="34.4851" y2="60.4916" gradientUnits="userSpaceOnUse">
<stop stop-color="#808080" stop-opacity="0.25"/>
<stop offset="0.54" stop-color="#808080" stop-opacity="0.12"/>
<stop offset="1" stop-color="#808080" stop-opacity="0.1"/>
</linearGradient>
<linearGradient id="paint1_linear" x1="2642.15" y1="21112.9" x2="2793.44" y2="21112.9" gradientUnits="userSpaceOnUse">
<stop stop-color="#808080" stop-opacity="0.25"/>
<stop offset="0.54" stop-color="#808080" stop-opacity="0.12"/>
<stop offset="1" stop-color="#808080" stop-opacity="0.1"/>
</linearGradient>
<linearGradient id="paint2_linear" x1="3087.66" y1="15178.9" x2="3228.28" y2="15178.9" gradientUnits="userSpaceOnUse">
<stop stop-color="#808080" stop-opacity="0.25"/>
<stop offset="0.54" stop-color="#808080" stop-opacity="0.12"/>
<stop offset="1" stop-color="#808080" stop-opacity="0.1"/>
</linearGradient>
<linearGradient id="paint3_linear" x1="41591.5" y1="26469.3" x2="41591.5" y2="4984.97" gradientUnits="userSpaceOnUse">
<stop stop-color="#808080" stop-opacity="0.25"/>
<stop offset="0.54" stop-color="#808080" stop-opacity="0.12"/>
<stop offset="1" stop-color="#808080" stop-opacity="0.1"/>
</linearGradient>
<linearGradient id="paint4_linear" x1="10793" y1="5459.15" x2="10793" y2="4782.16" gradientUnits="userSpaceOnUse">
<stop stop-color="#808080" stop-opacity="0.25"/>
<stop offset="0.54" stop-color="#808080" stop-opacity="0.12"/>
<stop offset="1" stop-color="#808080" stop-opacity="0.1"/>
</linearGradient>
<linearGradient id="paint5_linear" x1="17533.9" y1="21871.6" x2="17533.9" y2="14695.3" gradientUnits="userSpaceOnUse">
<stop stop-color="#808080" stop-opacity="0.25"/>
<stop offset="0.54" stop-color="#808080" stop-opacity="0.12"/>
<stop offset="1" stop-color="#808080" stop-opacity="0.1"/>
</linearGradient>
</defs>
</svg>
