<svg width="24" height="24" viewBox="0 0 24 24" fill="none" xmlns="http://www.w3.org/2000/svg">
<circle cx="12" cy="12" r="11.25" stroke="#55576A" stroke-width="1.5"/>
<circle cx="12" cy="9.23074" r="3.86538" stroke="#55576A" stroke-width="1.5"/>
<mask id="path-3-inside-1" fill="white">
<path fill-rule="evenodd" clip-rule="evenodd" d="M20.192 20.7688C22.5353 18.5787 24 15.4604 24 12C24 5.37258 18.6274 0 12 0C5.37258 0 0 5.37258 0 12C0 15.4604 1.46471 18.5787 3.80798 20.7688C5.65579 18.2504 8.63696 16.6154 12 16.6154C15.363 16.6154 18.3442 18.2504 20.192 20.7688Z"/>
</mask>
<path d="M20.192 20.7688L18.9826 21.6561L19.982 23.0182L21.2163 21.8647L20.192 20.7688ZM3.80798 20.7688L2.78375 21.8647L4.01799 23.0182L5.01736 21.6561L3.80798 20.7688ZM22.5 12C22.5 15.0279 21.2203 17.7546 19.1678 19.6729L21.2163 21.8647C23.8503 19.4028 25.5 15.8929 25.5 12H22.5ZM12 1.5C17.799 1.5 22.5 6.20101 22.5 12H25.5C25.5 4.54416 19.4558 -1.5 12 -1.5V1.5ZM1.5 12C1.5 6.20101 6.20101 1.5 12 1.5V-1.5C4.54416 -1.5 -1.5 4.54416 -1.5 12H1.5ZM4.83221 19.6729C2.77974 17.7546 1.5 15.0279 1.5 12H-1.5C-1.5 15.8929 0.14968 19.4028 2.78375 21.8647L4.83221 19.6729ZM5.01736 21.6561C6.59476 19.5063 9.13484 18.1154 12 18.1154V15.1154C8.13908 15.1154 4.71682 16.9944 2.59859 19.8815L5.01736 21.6561ZM12 18.1154C14.8652 18.1154 17.4052 19.5063 18.9826 21.6561L21.4014 19.8815C19.2832 16.9945 15.8609 15.1154 12 15.1154V18.1154Z" fill="#55576A" mask="url(#path-3-inside-1)"/>
</svg>
