<svg width="23" height="24" viewBox="0 0 23 24" fill="none" xmlns="http://www.w3.org/2000/svg">
<path d="M12.4884 1.11213L19.8768 5.40474L11.1433 10.5434L2.40776 5.40465L9.79464 1.11213C10.2039 0.87492 10.6685 0.75 11.1415 0.75C11.6145 0.75 12.0791 0.87492 12.4884 1.11213ZM11.4153 10.7033L11.4149 10.7031L11.4153 10.7033Z" stroke="#55576A" stroke-width="1.5"/>
<path d="M10.2848 12.9792C10.2847 12.9416 10.2748 12.9047 10.256 12.8722L10.2848 12.9792ZM10.2848 12.9792V23.2898L10.0706 12.9792H10.0695H9.53479V12.98M10.2848 12.9792L10.0705 12.9794L10.0694 12.9794L9.53479 12.98M9.53479 12.98C9.53489 13.0739 9.55968 13.1662 9.6067 13.2476M9.53479 12.98V13.2872M9.6067 13.2476L0.750005 8.16286M9.6067 13.2476C9.65316 13.3279 9.71968 13.3948 9.79976 13.4417M9.6067 13.2476C9.6067 13.2475 9.6067 13.2475 9.6067 13.2475L0.750005 16.5455M9.53479 13.2872L0.750005 8.16286M9.53479 13.2872V22.8401L1.66271 18.1201L1.66274 18.1201L1.65453 18.1153C1.3798 17.9552 1.15175 17.7261 0.993062 17.4506C0.834479 17.1752 0.750687 16.8632 0.750005 16.5455M9.53479 13.2872L9.79976 13.4417M0.750005 8.16286V16.5455M0.750005 8.16286V16.5455M9.79976 13.4417L9.79976 13.4417L9.80265 13.4434C9.80169 13.4428 9.80072 13.4423 9.79976 13.4417ZM10.0736 23.7878L10.256 23.8933L10.0736 23.7878Z" stroke="#55576A" stroke-width="1.5"/>
<path d="M20.6288 18.1122L20.6287 18.1121L20.6204 18.1171L12.7489 22.8371V13.3239L21.5337 8.16763V16.5446C21.5326 16.8619 21.4486 17.1735 21.29 17.4484C21.1313 17.7235 20.9033 17.9524 20.6288 18.1122Z" stroke="#55576A" stroke-width="1.5"/>
</svg>
