<svg width="16" height="24" viewBox="0 0 16 24" fill="none" xmlns="http://www.w3.org/2000/svg">
<path fill-rule="evenodd" clip-rule="evenodd" d="M8.36787 0.165442L12.1318 3.99021C12.3899 4.25292 12.3899 4.68232 12.1318 4.94594C12.0068 5.07368 11.8411 5.14343 11.6654 5.14343C11.4888 5.14253 11.3249 5.07368 11.1999 4.94594L8.66946 2.37587V16.0769C8.66946 16.4501 8.37331 16.7527 8.00923 16.7527C7.64515 16.7527 7.349 16.4501 7.349 16.0769V2.40848L4.84938 4.94594C4.59942 5.20141 4.16561 5.2005 3.91746 4.94685C3.65844 4.68232 3.65844 4.25292 3.91746 3.99021L7.68138 0.165442C7.89874 -0.0556002 8.15232 -0.0546943 8.36787 0.165442ZM15.9492 9.73188V22.4147C15.9492 23.2898 15.2391 24 14.3642 24H1.685C0.80923 24 0.100098 23.2898 0.100098 22.4147V9.73188C0.100098 8.85586 0.80923 8.14653 1.685 8.14653H5.07217V9.5054H2.28817C1.82991 9.5054 1.45859 9.87682 1.45859 10.3352V21.8113C1.45859 22.2688 1.82991 22.6411 2.28817 22.6411H13.7611C14.2193 22.6411 14.5907 22.2688 14.5907 21.8113V10.3352C14.5907 9.87682 14.2193 9.5054 13.7611 9.5054H10.968V8.14653H14.3642C15.2391 8.14653 15.9492 8.85586 15.9492 9.73188Z" fill="#007AFF"/>
</svg>
